<mxfile host="app.diagrams.net" modified="2022-02-21T02:44:09.794Z" agent="5.0 (Macintosh; Intel Mac OS X 10_15_7) AppleWebKit/605.1.15 (KHTML, like Gecko) Version/15.1 Safari/605.1.15" etag="DMmlFnfpro6bBNKywz1U" version="16.0.3" type="github">
  <diagram id="wKQ-t2QIbXT0_-O55VqQ" name="第 1 页">
    <mxGraphModel dx="1577" dy="1075" grid="1" gridSize="10" guides="1" tooltips="1" connect="1" arrows="1" fold="1" page="1" pageScale="1" pageWidth="827" pageHeight="1169" math="0" shadow="0">
      <root>
        <mxCell id="0" />
        <mxCell id="1" parent="0" />
        <mxCell id="UBRDN73m78xO9z-snGrK-10" style="edgeStyle=orthogonalEdgeStyle;rounded=0;orthogonalLoop=1;jettySize=auto;html=1;exitX=0.5;exitY=1;exitDx=0;exitDy=0;entryX=0.5;entryY=0;entryDx=0;entryDy=0;fontSize=19;" edge="1" parent="1" source="UBRDN73m78xO9z-snGrK-2" target="UBRDN73m78xO9z-snGrK-4">
          <mxGeometry relative="1" as="geometry" />
        </mxCell>
        <mxCell id="UBRDN73m78xO9z-snGrK-2" value="&lt;font style=&quot;font-size: 19px&quot;&gt;意图识别：改签&lt;/font&gt;" style="shape=parallelogram;perimeter=parallelogramPerimeter;whiteSpace=wrap;html=1;fixedSize=1;" vertex="1" parent="1">
          <mxGeometry x="100" width="160" height="60" as="geometry" />
        </mxCell>
        <mxCell id="UBRDN73m78xO9z-snGrK-11" style="edgeStyle=orthogonalEdgeStyle;rounded=0;orthogonalLoop=1;jettySize=auto;html=1;exitX=0.5;exitY=1;exitDx=0;exitDy=0;entryX=0.5;entryY=0;entryDx=0;entryDy=0;fontSize=19;" edge="1" parent="1" source="UBRDN73m78xO9z-snGrK-4" target="UBRDN73m78xO9z-snGrK-5">
          <mxGeometry relative="1" as="geometry" />
        </mxCell>
        <mxCell id="UBRDN73m78xO9z-snGrK-4" value="用户输入改签人" style="rounded=0;whiteSpace=wrap;html=1;fontSize=19;" vertex="1" parent="1">
          <mxGeometry x="100" y="110" width="160" height="60" as="geometry" />
        </mxCell>
        <mxCell id="UBRDN73m78xO9z-snGrK-12" style="edgeStyle=orthogonalEdgeStyle;rounded=0;orthogonalLoop=1;jettySize=auto;html=1;exitX=0.5;exitY=1;exitDx=0;exitDy=0;entryX=0.5;entryY=0;entryDx=0;entryDy=0;fontSize=19;" edge="1" parent="1" source="UBRDN73m78xO9z-snGrK-5" target="UBRDN73m78xO9z-snGrK-8">
          <mxGeometry relative="1" as="geometry" />
        </mxCell>
        <mxCell id="UBRDN73m78xO9z-snGrK-5" value="用户输入改签日期" style="rounded=0;whiteSpace=wrap;html=1;fontSize=19;" vertex="1" parent="1">
          <mxGeometry x="100" y="220" width="160" height="60" as="geometry" />
        </mxCell>
        <mxCell id="UBRDN73m78xO9z-snGrK-13" style="edgeStyle=orthogonalEdgeStyle;rounded=0;orthogonalLoop=1;jettySize=auto;html=1;exitX=0.5;exitY=1;exitDx=0;exitDy=0;entryX=0.5;entryY=0;entryDx=0;entryDy=0;fontSize=19;" edge="1" parent="1" source="UBRDN73m78xO9z-snGrK-8" target="UBRDN73m78xO9z-snGrK-9">
          <mxGeometry relative="1" as="geometry" />
        </mxCell>
        <mxCell id="UBRDN73m78xO9z-snGrK-28" style="edgeStyle=orthogonalEdgeStyle;rounded=0;orthogonalLoop=1;jettySize=auto;html=1;exitX=1;exitY=0.5;exitDx=0;exitDy=0;fontSize=19;" edge="1" parent="1" source="UBRDN73m78xO9z-snGrK-8">
          <mxGeometry relative="1" as="geometry">
            <mxPoint x="410" y="360" as="targetPoint" />
          </mxGeometry>
        </mxCell>
        <mxCell id="UBRDN73m78xO9z-snGrK-8" value="..." style="rounded=0;whiteSpace=wrap;html=1;fontSize=19;" vertex="1" parent="1">
          <mxGeometry x="100" y="330" width="160" height="60" as="geometry" />
        </mxCell>
        <mxCell id="UBRDN73m78xO9z-snGrK-16" style="edgeStyle=orthogonalEdgeStyle;rounded=0;orthogonalLoop=1;jettySize=auto;html=1;exitX=0.5;exitY=1;exitDx=0;exitDy=0;entryX=0.5;entryY=0;entryDx=0;entryDy=0;fontSize=19;" edge="1" parent="1" source="UBRDN73m78xO9z-snGrK-9" target="UBRDN73m78xO9z-snGrK-14">
          <mxGeometry relative="1" as="geometry" />
        </mxCell>
        <mxCell id="UBRDN73m78xO9z-snGrK-25" style="edgeStyle=orthogonalEdgeStyle;rounded=0;orthogonalLoop=1;jettySize=auto;html=1;exitX=1;exitY=0.5;exitDx=0;exitDy=0;entryX=0.5;entryY=0;entryDx=0;entryDy=0;fontSize=19;" edge="1" parent="1" source="UBRDN73m78xO9z-snGrK-9" target="UBRDN73m78xO9z-snGrK-24">
          <mxGeometry relative="1" as="geometry" />
        </mxCell>
        <mxCell id="UBRDN73m78xO9z-snGrK-9" value="是否符合&lt;br&gt;改签政策" style="rhombus;whiteSpace=wrap;html=1;fontSize=19;" vertex="1" parent="1">
          <mxGeometry x="105" y="440" width="150" height="110" as="geometry" />
        </mxCell>
        <mxCell id="UBRDN73m78xO9z-snGrK-18" style="edgeStyle=orthogonalEdgeStyle;rounded=0;orthogonalLoop=1;jettySize=auto;html=1;entryX=0;entryY=0.5;entryDx=0;entryDy=0;fontSize=19;exitX=0;exitY=0.5;exitDx=0;exitDy=0;" edge="1" parent="1" source="UBRDN73m78xO9z-snGrK-19" target="UBRDN73m78xO9z-snGrK-4">
          <mxGeometry relative="1" as="geometry">
            <Array as="points">
              <mxPoint x="20" y="765" />
              <mxPoint x="20" y="140" />
            </Array>
          </mxGeometry>
        </mxCell>
        <mxCell id="UBRDN73m78xO9z-snGrK-20" style="edgeStyle=orthogonalEdgeStyle;rounded=0;orthogonalLoop=1;jettySize=auto;html=1;exitX=0.5;exitY=1;exitDx=0;exitDy=0;entryX=0.5;entryY=0;entryDx=0;entryDy=0;fontSize=19;" edge="1" parent="1" source="UBRDN73m78xO9z-snGrK-14" target="UBRDN73m78xO9z-snGrK-19">
          <mxGeometry relative="1" as="geometry" />
        </mxCell>
        <mxCell id="UBRDN73m78xO9z-snGrK-14" value="改签失败" style="rounded=0;whiteSpace=wrap;html=1;fontSize=19;" vertex="1" parent="1">
          <mxGeometry x="100" y="600" width="160" height="60" as="geometry" />
        </mxCell>
        <mxCell id="UBRDN73m78xO9z-snGrK-15" value="结束" style="rounded=1;whiteSpace=wrap;html=1;fontSize=19;arcSize=50;" vertex="1" parent="1">
          <mxGeometry x="97.5" y="870" width="165" height="60" as="geometry" />
        </mxCell>
        <mxCell id="UBRDN73m78xO9z-snGrK-21" style="edgeStyle=orthogonalEdgeStyle;rounded=0;orthogonalLoop=1;jettySize=auto;html=1;exitX=0.5;exitY=1;exitDx=0;exitDy=0;fontSize=19;" edge="1" parent="1" source="UBRDN73m78xO9z-snGrK-19" target="UBRDN73m78xO9z-snGrK-15">
          <mxGeometry relative="1" as="geometry" />
        </mxCell>
        <mxCell id="UBRDN73m78xO9z-snGrK-23" style="edgeStyle=orthogonalEdgeStyle;rounded=0;orthogonalLoop=1;jettySize=auto;html=1;exitX=1;exitY=0.5;exitDx=0;exitDy=0;entryX=0;entryY=0.5;entryDx=0;entryDy=0;fontSize=19;" edge="1" parent="1" source="UBRDN73m78xO9z-snGrK-19" target="UBRDN73m78xO9z-snGrK-22">
          <mxGeometry relative="1" as="geometry" />
        </mxCell>
        <mxCell id="UBRDN73m78xO9z-snGrK-19" value="是否转人工" style="rhombus;whiteSpace=wrap;html=1;fontSize=19;" vertex="1" parent="1">
          <mxGeometry x="105" y="710" width="150" height="110" as="geometry" />
        </mxCell>
        <mxCell id="UBRDN73m78xO9z-snGrK-26" style="edgeStyle=orthogonalEdgeStyle;rounded=0;orthogonalLoop=1;jettySize=auto;html=1;exitX=0.5;exitY=1;exitDx=0;exitDy=0;entryX=1;entryY=0.5;entryDx=0;entryDy=0;fontSize=19;" edge="1" parent="1" source="UBRDN73m78xO9z-snGrK-22" target="UBRDN73m78xO9z-snGrK-15">
          <mxGeometry relative="1" as="geometry" />
        </mxCell>
        <mxCell id="UBRDN73m78xO9z-snGrK-22" value="人工" style="rounded=0;whiteSpace=wrap;html=1;fontSize=19;" vertex="1" parent="1">
          <mxGeometry x="334" y="735" width="160" height="60" as="geometry" />
        </mxCell>
        <mxCell id="UBRDN73m78xO9z-snGrK-27" style="edgeStyle=orthogonalEdgeStyle;rounded=0;orthogonalLoop=1;jettySize=auto;html=1;exitX=1;exitY=0.5;exitDx=0;exitDy=0;fontSize=19;entryX=1;entryY=0.5;entryDx=0;entryDy=0;" edge="1" parent="1" source="UBRDN73m78xO9z-snGrK-24" target="UBRDN73m78xO9z-snGrK-15">
          <mxGeometry relative="1" as="geometry">
            <mxPoint x="260" y="900" as="targetPoint" />
          </mxGeometry>
        </mxCell>
        <mxCell id="UBRDN73m78xO9z-snGrK-24" value="改签成功" style="rounded=0;whiteSpace=wrap;html=1;fontSize=19;" vertex="1" parent="1">
          <mxGeometry x="334" y="600" width="160" height="60" as="geometry" />
        </mxCell>
      </root>
    </mxGraphModel>
  </diagram>
</mxfile>
